# xmcd
#
# Track frame offsets:
#	150
#	11027
#	23402
#	36619
#	48945
#	60554
#	73271
#	84882
#	96636
#	108360
#	120337
#	132893
#
# Disc length: 1925 seconds
#
# Revision: 2
# Processed by: cddbd v1.4PL0 Copyright (c) Steve Scherf et al.
# Submitted via: audiograbber 1.80
#
DISCID=9b07830c
DTITLE=Williams, Hank Sr - All-Time Greatest Hits - Vol 1
DYEAR=1900
DGENRE=
TTITLE0=Why Don't You Love Me
TTITLE1=Lovesick Blues
TTITLE2=Mind Your Own Business
TTITLE3=Lost Highway
TTITLE4=My Bucket's Got A Hole In It
TTITLE5=I Just Don't Like This Kind Of Living
TTITLE6=My Son Calls Another Man Daddy
TTITLE7=Mansion On The Hill
TTITLE8=Dear John
TTITLE9=Take These Chains From My Heart
TTITLE10=I'm So Lonesome I Could Cry
TTITLE11=Weary Blues From Waitin'
EXTD=
EXTT0=
EXTT1=
EXTT2=
EXTT3=
EXTT4=
EXTT5=
EXTT6=
EXTT7=
EXTT8=
EXTT9=
EXTT10=
EXTT11=
PLAYORDER=
